<svg xmlns="http://www.w3.org/2000/svg" xmlns:xlink="http://www.w3.org/1999/xlink" viewBox="0 0 36 36">
  <defs>
    <linearGradient id="a" x1="18" y1="1.905" x2="18" y2="37.85" gradientTransform="matrix(1, 0, 0, -1, 0, 38)" gradientUnits="userSpaceOnUse">
      <stop offset="0" stop-color="#3d3f58"/>
      <stop offset="1" stop-color="#777e92"/>
    </linearGradient>
  </defs>
  <title>icon</title>
  <circle cx="18" cy="18" r="18" fill="url(#a)"/>
  <path d="M24.873,6.943V28.079H11.143V6.943h13.73m0-2H11.143a2,2,0,0,0-2,2V28.079a2,2,0,0,0,2,2h13.73a2,2,0,0,0,2-2V6.943a2,2,0,0,0-2-2Z" fill="#fff"/>
  <line x1="19.347" y1="6.067" x2="25.778" y2="12.498" fill="none" stroke="#fff" stroke-linecap="round" stroke-linejoin="round" stroke-width="2"/>
  <path d="M13.18,5.486H10.054a.587.587,0,0,0-.059,0,.717.717,0,0,0-.625.8V9.3c0,.062.01.135.01.193s.011.11.011.171a.616.616,0,0,0,.02.142,2.179,2.179,0,0,0,.039.255v.011a3.82,3.82,0,0,0,.987,1.881,3.455,3.455,0,0,0,1.911,1.057,3.7,3.7,0,0,0,.832.1,3.8,3.8,0,0,0,3.792-3.5A2.842,2.842,0,0,0,16.98,9.3V9.293A3.8,3.8,0,0,0,13.18,5.486Zm.913,5.523a1.7,1.7,0,0,1-1.17.369,2.207,2.207,0,0,1-1.081-.222v-.6a1.977,1.977,0,0,0,.522.2,2.42,2.42,0,0,0,.548.07,1.012,1.012,0,0,0,.679-.2.724.724,0,0,0,.234-.584q0-.735-.939-.736a2.417,2.417,0,0,0-.325.027c-.13.018-.243.038-.34.06l-.295-.174.157-2h2.135V7.8H12.665L12.572,8.82l.24-.04a2.272,2.272,0,0,1,.347-.022,1.409,1.409,0,0,1,.983.328,1.148,1.148,0,0,1,.362.9A1.309,1.309,0,0,1,14.093,11.009Z" fill="#fff"/>
</svg>
