<svg xmlns="http://www.w3.org/2000/svg" viewBox="0 0 16 16">
  <title>icon-mask</title>
  <path d="M12.551,1V15.012h-9.1V1h9.1m0-1h-9.1a1,1,0,0,0-1,1V15.012a1,1,0,0,0,1,1h9.1a1,1,0,0,0,1-1V1a1,1,0,0,0-1-1Z"/>
  <line x1="13.033" y1="4.033" x2="9.5" y2="0.5" fill="none" stroke="#000" stroke-linecap="round" stroke-linejoin="round"/>
  <path d="M4.975,0H2.9L2.859,0a.477.477,0,0,0-.416.53v2c0,.041.007.09.007.128s.007.073.007.114a.427.427,0,0,0,.014.094,1.351,1.351,0,0,0,.026.169v.007a2.528,2.528,0,0,0,.655,1.25,2.294,2.294,0,0,0,1.27.7A2.5,2.5,0,0,0,7.494,2.736a1.714,1.714,0,0,0,.006-.2v0A2.527,2.527,0,0,0,4.975,0Zm.606,3.67a1.121,1.121,0,0,1-.777.245,1.476,1.476,0,0,1-.719-.147v-.4a1.327,1.327,0,0,0,.348.133A1.581,1.581,0,0,0,4.8,3.55a.673.673,0,0,0,.451-.133A.48.48,0,0,0,5.4,3.029q0-.489-.623-.489a1.768,1.768,0,0,0-.217.017c-.086.012-.161.026-.226.041l-.2-.116.105-1.333H5.664V1.54H4.632l-.061.675.159-.026a1.5,1.5,0,0,1,.231-.015.937.937,0,0,1,.653.218.765.765,0,0,1,.241.6A.868.868,0,0,1,5.581,3.67Z"/>
</svg>
